<svg width="400" height="300" xmlns="http://www.w3.org/2000/svg">
  <defs>
    <linearGradient id="building" x1="0%" y1="0%" x2="100%" y2="0%">
      <stop offset="0%" style="stop-color:#C0C0C0;stop-opacity:1" />
      <stop offset="100%" style="stop-color:#A9A9A9;stop-opacity:1" />
    </linearGradient>
  </defs>
  
  <!-- Небо -->
  <rect width="400" height="200" fill="#87CEEB"/>
  
  <!-- Основное здание -->
  <rect x="100" y="100" width="200" height="200" fill="url(#building)"/>
  
  <!-- Крыша -->
  <polygon points="100,100 200,50 300,100" fill="#8B0000"/>
  
  <!-- Окна -->
  <rect x="120" y="130" width="25" height="30" fill="#87CEEB"/>
  <rect x="155" y="130" width="25" height="30" fill="#87CEEB"/>
  <rect x="190" y="130" width="25" height="30" fill="#87CEEB"/>
  <rect x="225" y="130" width="25" height="30" fill="#87CEEB"/>
  <rect x="260" y="130" width="25" height="30" fill="#87CEEB"/>
  
  <rect x="120" y="170" width="25" height="30" fill="#87CEEB"/>
  <rect x="155" y="170" width="25" height="30" fill="#87CEEB"/>
  <rect x="190" y="170" width="25" height="30" fill="#87CEEB"/>
  <rect x="225" y="170" width="25" height="30" fill="#87CEEB"/>
  <rect x="260" y="170" width="25" height="30" fill="#87CEEB"/>
  
  <rect x="120" y="210" width="25" height="30" fill="#87CEEB"/>
  <rect x="155" y="210" width="25" height="30" fill="#87CEEB"/>
  <rect x="190" y="210" width="25" height="30" fill="#87CEEB"/>
  <rect x="225" y="210" width="25" height="30" fill="#87CEEB"/>
  <rect x="260" y="210" width="25" height="30" fill="#87CEEB"/>
  
  <!-- Дверь -->
  <rect x="180" y="240" width="40" height="60" fill="#8B4513"/>
  
  <!-- Дорожка -->
  <rect x="180" y="300" width="40" height="50" fill="#696969"/>
</svg>
