<svg width="400" height="300" xmlns="http://www.w3.org/2000/svg">
  <defs>
    <linearGradient id="modern" x1="0%" y1="0%" x2="100%" y2="100%">
      <stop offset="0%" style="stop-color:#FF6347;stop-opacity:1" />
      <stop offset="100%" style="stop-color:#DC143C;stop-opacity:1" />
    </linearGradient>
  </defs>
  
  <!-- Небо -->
  <rect width="400" height="150" fill="#87CEEB"/>
  
  <!-- Современное здание -->
  <rect x="150" y="120" width="100" height="180" fill="url(#modern)"/>
  
  <!-- Второе здание -->
  <rect x="80" y="140" width="60" height="160" fill="#4682B4"/>
  
  <!-- Третье здание -->
  <rect x="270" y="100" width="80" height="200" fill="#32CD32"/>
  
  <!-- Окна -->
  <rect x="90" y="160" width="8" height="12" fill="#FFD700"/>
  <rect x="110" y="160" width="8" height="12" fill="#FFD700"/>
  <rect x="130" y="160" width="8" height="12" fill="#FFD700"/>
  
  <rect x="90" y="180" width="8" height="12" fill="#FFD700"/>
  <rect x="110" y="180" width="8" height="12" fill="#FFD700"/>
  <rect x="130" y="180" width="8" height="12" fill="#FFD700"/>
  
  <rect x="170" y="140" width="10" height="15" fill="#FFD700"/>
  <rect x="190" y="140" width="10" height="15" fill="#FFD700"/>
  <rect x="210" y="140" width="10" height="15" fill="#FFD700"/>
  <rect x="230" y="140" width="10" height="15" fill="#FFD700"/>
  
  <rect x="290" y="120" width="12" height="18" fill="#FFD700"/>
  <rect x="310" y="120" width="12" height="18" fill="#FFD700"/>
  <rect x="330" y="120" width="12" height="18" fill="#FFD700"/>
  
  <!-- Основание -->
  <rect x="0" y="300" width="400" height="50" fill="#696969"/>
</svg>
