<svg width="400" height="400" xmlns="http://www.w3.org/2000/svg">
  <defs>
    <radialGradient id="face2" cx="50%" cy="30%" r="70%">
      <stop offset="0%" style="stop-color:#F4A460;stop-opacity:1" />
      <stop offset="100%" style="stop-color:#DEB887;stop-opacity:1" />
    </radialGradient>
    <radialGradient id="hair2" cx="50%" cy="30%" r="80%">
      <stop offset="0%" style="stop-color:#FFD700;stop-opacity:1" />
      <stop offset="100%" style="stop-color:#DAA520;stop-opacity:1" />
    </radialGradient>
  </defs>
  
  <!-- Фон -->
  <rect width="400" height="400" fill="#FFF8DC"/>
  
  <!-- Волосы -->
  <ellipse cx="200" cy="140" rx="85" ry="75" fill="url(#hair2)"/>
  
  <!-- Лицо -->
  <ellipse cx="200" cy="210" rx="65" ry="85" fill="url(#face2)"/>
  
  <!-- Глаза -->
  <ellipse cx="175" cy="190" rx="10" ry="14" fill="white"/>
  <ellipse cx="225" cy="190" rx="10" ry="14" fill="white"/>
  <circle cx="175" cy="190" r="5" fill="#000"/>
  <circle cx="225" cy="190" r="5" fill="#000"/>
  <circle cx="177" cy="187" r="1.5" fill="white"/>
  <circle cx="227" cy="187" r="1.5" fill="white"/>
  
  <!-- Нос -->
  <ellipse cx="200" cy="215" rx="4" ry="10" fill="#DEB887"/>
  
  <!-- Рот -->
  <ellipse cx="200" cy="245" rx="12" ry="6" fill="#8B0000"/>
  
  <!-- Брови -->
  <path d="M160,175 Q175,165 190,175" stroke="#DAA520" stroke-width="4" fill="none"/>
  <path d="M210,175 Q225,165 240,175" stroke="#DAA520" stroke-width="4" fill="none"/>
  
  <!-- Улыбка -->
  <path d="M185,245 Q200,255 215,245" stroke="#8B0000" stroke-width="2" fill="none"/>
  
  <!-- Шея -->
  <rect x="175" y="295" width="50" height="35" fill="url(#face2)"/>
  
  <!-- Одежда -->
  <rect x="140" y="330" width="120" height="70" fill="#DC143C"/>
</svg>
